<?xml version="1.0" encoding="UTF-8" standalone="no"?><!DOCTYPE svg PUBLIC "-//W3C//DTD SVG 1.1//EN" "http://www.w3.org/Graphics/SVG/1.1/DTD/svg11.dtd"><svg width="100%" height="100%" viewBox="0 0 610 400" version="1.1" xmlns="http://www.w3.org/2000/svg" xmlns:xlink="http://www.w3.org/1999/xlink" xml:space="preserve" xmlns:serif="http://www.serif.com/" style="fill-rule:evenodd;clip-rule:evenodd;stroke-linejoin:round;stroke-miterlimit:2;"><rect id="Artboard8" x="0" y="0" width="610" height="400" style="fill:none;"/><clipPath id="_clip1"><rect x="0" y="0" width="610" height="400"/></clipPath><g clip-path="url(#_clip1)"><path id="优路径" d="M69.971,138.479l0,-7.28l-8.255,-0l5.395,-4.03c-1.755,-2.665 -5.59,-6.695 -8.45,-9.49l-5.395,3.835c2.86,2.925 6.305,6.955 7.995,9.685l-13.325,-0c0.13,-4.485 0.195,-9.23 0.195,-13.975l-7.735,-0c0,4.81 0,9.49 -0.13,13.975l-13,-0l0,7.28l12.61,-0c-1.04,13.715 -4.225,25.22 -15.015,32.63c2.015,1.365 4.42,4.03 5.655,6.11c12.025,-8.84 15.795,-22.62 17.03,-38.74l22.425,-0Zm85.28,-7.865c-3.77,6.37 -10.14,12.74 -15.925,16.77c1.17,1.885 3.12,6.11 3.64,7.865c1.755,-1.43 3.575,-2.99 5.395,-4.745l0,26.65l7.865,-0l0,-35.425c2.145,-2.73 4.095,-5.46 5.72,-8.19l-6.695,-2.925Zm-131.3,-14.04c-3.185,9.295 -8.645,18.395 -14.3,24.375c1.3,1.82 3.445,6.11 4.16,7.995c1.17,-1.3 2.405,-2.795 3.575,-4.355l0,32.5l7.345,-0l0,-43.94c2.535,-4.68 4.745,-9.555 6.5,-14.3l-7.28,-2.275Zm103.61,5.72l-1.365,0.26l-9.1,-0c0.585,-1.43 1.105,-2.925 1.625,-4.355l-7.345,-1.82c-2.145,7.085 -6.045,13.975 -10.79,18.525l0,-16.12l-22.425,-0l0,21.515l9.1,-0l0,24.44l-3.25,0.65l0,-20.54l-6.305,-0l0,21.84l-2.925,0.52l1.365,7.41c7.345,-1.69 17.225,-3.965 26.325,-6.24l-0.715,-6.825l-7.67,1.755l0,-8.645l7.15,-0l0,-1.885c0.91,1.235 1.885,2.665 2.405,3.705l1.495,-0.65l0,21.125l7.15,-0l0,-2.21l12.22,-0l0,2.015l7.41,-0l0,-21.255l0.13,0.065c1.04,-2.015 3.25,-5.07 4.81,-6.5c-5.2,-1.625 -9.685,-4.225 -13.455,-7.215c3.965,-4.81 7.02,-10.66 9.035,-17.485l-4.875,-2.08Zm-69.68,46.215c-1.495,-0 -1.755,-0.325 -1.755,-2.6l0,-23.53l-7.54,-0l0,23.53c0,7.28 1.625,9.685 8.06,9.685l6.11,-0c5.655,-0 7.475,-3.185 8.125,-13.975c-1.95,-0.52 -5.2,-1.82 -6.76,-3.12c-0.26,8.58 -0.52,10.01 -2.08,10.01l-4.16,-0Zm126.49,-11.83l12.415,-0l0,-7.15l-33.215,-0l0,7.15l12.87,-0l0,11.83l-16.445,-0l0,7.085l40.3,-0l0,-7.085l-15.925,-0l0,-11.83Zm-72.085,11.44l0,-8.645l12.22,-0l0,8.645l-12.22,-0Zm-1.755,-15.145c2.86,-1.755 5.525,-3.64 7.995,-5.915c2.47,2.21 5.135,4.16 8.125,5.915l-16.12,-0Zm-9.295,-5.07l-7.15,-0l0,-7.605l6.5,-0l0,-4.16c1.755,1.17 4.095,3.25 5.2,4.42c1.3,-1.365 2.6,-2.86 3.835,-4.485c1.17,1.885 2.47,3.835 4.03,5.72c-3.64,3.38 -7.93,6.175 -12.415,8.125l0,-2.015Zm99.32,-5.46c-3.055,-2.08 -8.58,-4.81 -13.585,-7.15c4.355,-3.77 8.06,-7.995 10.725,-12.805l-5.525,-3.25l-1.3,0.325l-27.43,-0l0,7.02l21.71,-0c-6.565,7.02 -17.16,12.935 -27.235,16.055c1.625,1.56 3.575,4.485 4.615,6.435c6.305,-2.275 12.61,-5.33 18.33,-9.165c5.655,2.73 12.155,6.175 15.47,8.71l4.225,-6.175Zm-77.61,-13.325c-1.3,2.73 -2.86,5.265 -4.745,7.67c-1.82,-2.21 -3.445,-4.485 -4.745,-6.695l0.52,-0.975l8.97,-0Zm30.615,-12.675c-2.73,4.355 -8.45,9.62 -13.585,12.74c1.17,1.56 3.055,4.745 3.9,6.5c6.045,-3.965 12.675,-10.27 16.965,-16.25l-7.28,-2.99Zm-68.64,8.97l8.58,-0l0,8.255l-8.58,-0l0,-8.255Z" style="fill:#55555d;fill-rule:nonzero;"/><path d="M545.541,52.455l-39.293,218.203c8.696,-54.665 14.497,-129.514 -37.289,-107.991c39.48,-31.897 58.982,-70.724 76.582,-110.212Z" style="fill:#8792c4;"/><path d="M561.533,16.226l-49.731,276.169c11.005,-69.187 18.348,-163.92 -47.195,-136.68c49.967,-40.37 74.651,-89.512 96.926,-139.489Z" style="fill:url(#_Linear2);"/><path d="M571.382,0c-1.408,77.989 7.229,149.879 38.758,205.909c-59.043,-44.829 -87.64,97.751 -111.176,194.131l72.418,-400.04Z" style="fill:url(#_Linear3);"/><path id="EURO" d="M88.976,190.382l-15.209,0l-6.922,35.608c-1.438,7.397 -2.08,12.992 -1.945,16.78l0,0.003c0.111,2.693 0.92,5.266 2.437,7.719c1.514,2.447 3.824,4.448 6.953,5.979c3.034,1.485 7.761,2.26 14.193,2.26c5.305,0 9.734,-0.689 13.29,-2.046c3.594,-1.371 6.606,-3.216 9.042,-5.526c2.444,-2.319 4.368,-5.161 5.765,-8.531c1.356,-3.271 2.812,-8.867 4.352,-16.79c0,-0 6.892,-35.456 6.892,-35.456l-15.209,0l-7.173,36.899c-0.989,5.089 -1.882,8.732 -2.689,10.926c-0.75,2.039 -2.14,3.752 -4.153,5.153c-2.053,1.429 -4.834,2.113 -8.329,2.113c-3.374,-0 -5.905,-0.688 -7.562,-2.171c-1.598,-1.43 -2.403,-3.333 -2.444,-5.694c-0.002,-1.636 0.542,-5.202 1.612,-10.702c-0,-0 7.099,-36.524 7.099,-36.524Zm107.264,33.828c-2.086,10.728 -0.702,19.14 4.026,25.255c4.748,6.143 12.136,9.266 22.205,9.266c9.837,0 18.285,-3.059 25.35,-9.166c7.042,-6.086 11.626,-14.508 13.721,-25.285c2.132,-10.967 0.751,-19.52 -4.011,-25.678c-4.786,-6.189 -12.148,-9.332 -22.125,-9.332c-5.443,-0 -10.417,0.885 -14.926,2.649c-3.402,1.314 -6.691,3.327 -9.863,6.047c-3.155,2.705 -5.822,5.76 -8.004,9.164l-0.001,0.001c-2.925,4.605 -5.054,10.296 -6.372,17.079l-0,0Zm-183.171,-33.828l-13.069,67.237l51.654,-0l2.526,-12.992l-36.445,0c-0,0 3.062,-15.755 3.062,-15.755c0,-0 32.752,-0 32.752,-0l2.525,-12.991l-32.752,-0c0,-0 2.423,-12.463 2.423,-12.463c-0,0 35.199,0 35.199,0l2.534,-13.036l-50.409,0Zm126.646,0l-13.069,67.237l15.209,-0l5.294,-27.234c-0,-0 1.845,-0 1.845,-0c2.86,-0 4.907,0.207 6.135,0.67c1.133,0.427 2.123,1.227 2.985,2.378c0.971,1.296 2.623,4.438 4.974,9.417l7.037,14.769l17.905,-0l-6.094,-14.122c-2.2,-5.17 -4.057,-8.764 -5.554,-10.79c-1.126,-1.525 -2.547,-2.96 -4.268,-4.302c5.007,-1.035 9.079,-2.999 12.225,-5.868c3.657,-3.334 5.987,-7.557 6.982,-12.675c0.793,-4.079 0.476,-7.702 -0.916,-10.872c-1.428,-3.25 -3.736,-5.507 -6.916,-6.779c-3.006,-1.201 -8.079,-1.829 -15.227,-1.829c0,0 -28.547,0 -28.547,0Zm72.147,33.765c1.41,-7.256 4.041,-12.699 7.953,-16.298c3.854,-3.546 8.365,-5.321 13.536,-5.321c5.049,0 8.784,1.669 11.168,5.09c2.445,3.509 2.89,8.838 1.503,15.969c-1.422,7.317 -4.088,12.819 -8.055,16.477c-3.905,3.6 -8.354,5.409 -13.352,5.409c-4.884,-0 -8.58,-1.747 -11.064,-5.292c-2.547,-3.637 -3.059,-8.987 -1.689,-16.034Zm-62.301,-6.175l2.829,-14.554c0,0 9.455,0 9.455,0c5.226,0 8.362,0.066 9.407,0.21c1.752,0.304 3.028,0.989 3.797,2.13c0.78,1.158 0.938,2.685 0.572,4.568c-0.344,1.769 -1.024,3.248 -2.057,4.427c-1.022,1.167 -2.283,1.988 -3.781,2.465c-1.634,0.521 -5.531,0.754 -11.689,0.754l-8.533,-0Z" style="fill:#0f73bb;"/><path id="GAIN" d="M302.421,220.502l-2.525,12.991l15.085,0c0,0 -1.297,6.675 -1.297,6.675c-2.144,1.402 -4.594,2.601 -7.347,3.6c-2.867,1.04 -5.624,1.564 -8.274,1.564c-5.2,0 -9.071,-1.768 -11.578,-5.377c-2.57,-3.701 -3.054,-9.26 -1.615,-16.661c1.346,-6.927 3.973,-12.164 7.935,-15.685c3.921,-3.485 8.632,-5.221 14.128,-5.221c3.518,-0 6.295,0.825 8.311,2.542c1.982,1.689 3.092,4 3.362,6.919l0.101,1.085l15.474,-2.793l-0.021,-0.856c-0.147,-6.307 -2.295,-11.238 -6.393,-14.814c-4.039,-3.524 -10.244,-5.341 -18.646,-5.341c-6.393,-0 -11.95,1.12 -16.675,3.343c-6.191,2.891 -11.274,7.045 -15.248,12.462c-3.96,5.398 -6.618,11.568 -7.967,18.512c-1.25,6.427 -1.088,12.374 0.469,17.842c1.587,5.573 4.748,9.856 9.475,12.852c4.66,2.954 10.505,4.45 17.545,4.45c5.48,-0 11.094,-1.034 16.841,-3.108c5.756,-2.077 10.304,-4.489 13.655,-7.218l0.281,-0.229l5.352,-27.534l-30.428,-0Zm111.835,-30.26l-13.069,67.236l15.209,0l13.07,-67.236l-15.21,0Zm25.855,0l-13.07,67.236l14.275,0l7.802,-40.136c-0,-0.001 17.01,40.136 17.01,40.136l14.703,0l13.07,-67.236l-14.275,0l-7.996,41.134c0,0 -17.214,-41.134 -17.214,-41.134l-14.305,0Zm-59.454,67.236l16.384,0l-13.852,-67.236l-15.318,0l-38.379,65.732l0.863,1.504l14.56,0l8.265,-14.818c0,-0 24.662,-0 24.662,-0c-0,-0 2.815,14.818 2.815,14.818Zm-5.271,-27.809l-14.903,-0c-0,-0 11.317,-20.269 11.317,-20.269l3.586,20.269Z" style="fill:#1f1f7a;fill-rule:nonzero;"/><path id="tagline" d="M192.438,295.713l2.904,0.444c-0.054,0.923 0.163,1.595 0.65,2.017c0.653,0.57 1.64,0.855 2.962,0.855c1.424,-0 2.579,-0.285 3.464,-0.855c0.886,-0.57 1.565,-1.367 2.038,-2.393c0.281,-0.626 0.611,-1.942 0.989,-3.947c-1.652,1.583 -3.481,2.375 -5.486,2.375c-2.495,0 -4.251,-0.9 -5.269,-2.7c-1.017,-1.8 -1.281,-3.959 -0.791,-6.477c0.336,-1.732 0.96,-3.33 1.871,-4.794c0.911,-1.464 2.04,-2.595 3.386,-3.392c1.345,-0.798 2.821,-1.196 4.428,-1.196c2.142,-0 3.739,0.865 4.793,2.597l0.425,-2.187l2.837,-0l-3.05,15.688c-0.549,2.826 -1.226,4.828 -2.031,6.007c-0.804,1.18 -1.897,2.111 -3.277,2.795c-1.381,0.683 -2.982,1.025 -4.805,1.025c-2.165,-0 -3.819,-0.487 -4.963,-1.461c-1.143,-0.974 -1.502,-2.441 -1.075,-4.401Zm214.016,0l2.904,0.444c-0.054,0.923 0.163,1.595 0.651,2.017c0.652,0.57 1.639,0.855 2.961,0.855c1.424,-0 2.579,-0.285 3.464,-0.855c0.886,-0.57 1.565,-1.367 2.038,-2.393c0.281,-0.626 0.611,-1.942 0.989,-3.947c-1.652,1.583 -3.481,2.375 -5.486,2.375c-2.495,0 -4.251,-0.9 -5.269,-2.7c-1.017,-1.8 -1.281,-3.959 -0.791,-6.477c0.336,-1.732 0.96,-3.33 1.871,-4.794c0.912,-1.464 2.04,-2.595 3.386,-3.392c1.345,-0.798 2.821,-1.196 4.428,-1.196c2.142,-0 3.739,0.865 4.793,2.597l0.425,-2.187l2.837,-0l-3.05,15.688c-0.549,2.826 -1.226,4.828 -2.03,6.007c-0.805,1.18 -1.898,2.111 -3.278,2.795c-1.38,0.683 -2.982,1.025 -4.805,1.025c-2.165,-0 -3.819,-0.487 -4.963,-1.461c-1.143,-0.974 -1.502,-2.441 -1.075,-4.401Zm-261.219,5.452l4.88,-25.105l2.803,-0l-0.458,2.358c0.84,-0.923 1.721,-1.615 2.642,-2.076c0.921,-0.462 1.974,-0.692 3.159,-0.692c1.55,-0 2.839,0.398 3.869,1.196c1.03,0.797 1.706,1.922 2.027,3.375c0.322,1.453 0.314,3.045 -0.022,4.777c-0.361,1.857 -1.02,3.529 -1.975,5.016c-0.956,1.486 -2.145,2.626 -3.57,3.418c-1.424,0.791 -2.837,1.187 -4.238,1.187c-1.026,0 -1.903,-0.216 -2.634,-0.649c-0.73,-0.433 -1.293,-0.98 -1.689,-1.641l-1.718,8.836l-3.076,-0Zm197.708,-12.373l3.135,-0.479c-0.066,1.219 0.228,2.153 0.882,2.803c0.655,0.649 1.682,0.974 3.084,0.974c1.412,0 2.517,-0.288 3.312,-0.863c0.795,-0.575 1.268,-1.25 1.419,-2.025c0.135,-0.695 -0.061,-1.242 -0.587,-1.641c-0.368,-0.273 -1.349,-0.621 -2.942,-1.042c-2.145,-0.57 -3.613,-1.063 -4.404,-1.479c-0.79,-0.415 -1.339,-0.991 -1.646,-1.726c-0.308,-0.734 -0.375,-1.546 -0.202,-2.435c0.157,-0.809 0.488,-1.558 0.992,-2.247c0.504,-0.69 1.12,-1.262 1.846,-1.718c0.548,-0.353 1.258,-0.652 2.132,-0.897c0.873,-0.245 1.783,-0.367 2.728,-0.367c1.425,-0 2.635,0.205 3.632,0.615c0.997,0.41 1.684,0.965 2.06,1.666c0.377,0.701 0.548,1.638 0.513,2.811l-3.087,0.411c0.045,-0.935 -0.209,-1.664 -0.763,-2.188c-0.553,-0.524 -1.428,-0.786 -2.624,-0.786c-1.413,-0 -2.466,0.233 -3.161,0.701c-0.695,0.467 -1.103,1.014 -1.225,1.64c-0.077,0.399 -0.022,0.758 0.167,1.077c0.186,0.33 0.526,0.604 1.02,0.82c0.285,0.114 1.14,0.376 2.564,0.786c2.063,0.581 3.489,1.057 4.277,1.427c0.788,0.371 1.359,0.909 1.711,1.615c0.353,0.707 0.427,1.584 0.224,2.632c-0.2,1.026 -0.686,1.991 -1.461,2.897c-0.774,0.906 -1.773,1.606 -2.997,2.102c-1.225,0.496 -2.549,0.743 -3.973,0.743c-2.358,0 -4.06,-0.49 -5.106,-1.469c-1.046,-0.98 -1.552,-2.433 -1.52,-4.358Zm-23.227,-0.428l3.102,0.394c-0.862,1.857 -2.071,3.298 -3.626,4.323c-1.555,1.026 -3.387,1.538 -5.494,1.538c-2.655,0 -4.601,-0.817 -5.838,-2.452c-1.238,-1.635 -1.57,-3.928 -0.996,-6.879c0.593,-3.053 1.84,-5.423 3.74,-7.109c1.9,-1.686 4.103,-2.529 6.61,-2.529c2.427,-0 4.249,0.826 5.466,2.478c1.217,1.652 1.534,3.976 0.951,6.972c-0.035,0.183 -0.094,0.456 -0.176,0.821l-13.535,-0c-0.274,1.993 -0.007,3.52 0.801,4.58c0.808,1.059 1.97,1.589 3.485,1.589c1.128,0 2.149,-0.296 3.061,-0.889c0.913,-0.592 1.729,-1.538 2.449,-2.837Zm-65.873,5.845l0.518,-2.666c-1.811,2.051 -3.93,3.076 -6.357,3.076c-1.071,0 -2.031,-0.205 -2.88,-0.615c-0.848,-0.41 -1.437,-0.926 -1.767,-1.547c-0.329,-0.62 -0.497,-1.381 -0.505,-2.281c-0.008,-0.604 0.116,-1.561 0.37,-2.871l2.186,-11.245l3.076,-0l-1.956,10.066c-0.313,1.606 -0.46,2.688 -0.443,3.247c0.036,0.809 0.323,1.444 0.86,1.905c0.537,0.462 1.266,0.692 2.189,0.692c0.923,0 1.835,-0.236 2.736,-0.709c0.901,-0.473 1.598,-1.116 2.093,-1.931c0.494,-0.815 0.892,-1.997 1.193,-3.546l1.89,-9.724l3.077,-0l-3.528,18.149l-2.752,0Zm-28.523,0l-2.854,0l4.87,-25.054l3.076,0l-1.737,8.938c1.615,-1.629 3.432,-2.443 5.448,-2.443c1.117,-0 2.13,0.225 3.039,0.675c0.91,0.45 1.607,1.082 2.092,1.897c0.486,0.814 0.799,1.797 0.94,2.948c0.141,1.15 0.084,2.381 -0.171,3.691c-0.605,3.11 -1.841,5.514 -3.709,7.212c-1.868,1.698 -3.879,2.546 -6.032,2.546c-2.142,0 -3.649,-0.894 -4.52,-2.683l-0.442,2.273Zm-92.413,-5.845l3.102,0.394c-0.862,1.857 -2.071,3.298 -3.626,4.323c-1.555,1.026 -3.387,1.538 -5.495,1.538c-2.654,0 -4.6,-0.817 -5.838,-2.452c-1.237,-1.635 -1.569,-3.928 -0.995,-6.879c0.593,-3.053 1.84,-5.423 3.74,-7.109c1.9,-1.686 4.103,-2.529 6.61,-2.529c2.427,-0 4.249,0.826 5.465,2.478c1.217,1.652 1.535,3.976 0.952,6.972c-0.035,0.183 -0.094,0.456 -0.176,0.821l-13.535,-0c-0.274,1.993 -0.007,3.52 0.801,4.58c0.808,1.059 1.97,1.589 3.485,1.589c1.128,0 2.148,-0.296 3.061,-0.889c0.913,-0.592 1.729,-1.538 2.449,-2.837Zm306.143,-3.23c0.653,-3.361 2.071,-5.85 4.254,-7.468c1.822,-1.344 3.855,-2.016 6.1,-2.016c2.495,-0 4.376,0.817 5.641,2.452c1.266,1.635 1.619,3.894 1.059,6.776c-0.454,2.336 -1.162,4.173 -2.123,5.512c-0.961,1.338 -2.182,2.378 -3.665,3.118c-1.483,0.741 -3.016,1.111 -4.599,1.111c-2.541,0 -4.436,-0.814 -5.686,-2.444c-1.25,-1.629 -1.577,-3.976 -0.981,-7.041Zm-177.813,3.658l3.135,-0.479c-0.066,1.219 0.228,2.153 0.882,2.803c0.654,0.649 1.682,0.974 3.083,0.974c1.413,0 2.517,-0.288 3.312,-0.863c0.796,-0.575 1.269,-1.25 1.419,-2.025c0.136,-0.695 -0.06,-1.242 -0.586,-1.641c-0.369,-0.273 -1.349,-0.621 -2.942,-1.042c-2.145,-0.57 -3.613,-1.063 -4.404,-1.479c-0.791,-0.415 -1.34,-0.991 -1.647,-1.726c-0.307,-0.734 -0.374,-1.546 -0.202,-2.435c0.158,-0.809 0.488,-1.558 0.993,-2.247c0.504,-0.69 1.119,-1.262 1.846,-1.718c0.547,-0.353 1.257,-0.652 2.131,-0.897c0.874,-0.245 1.783,-0.367 2.729,-0.367c1.424,-0 2.635,0.205 3.632,0.615c0.997,0.41 1.683,0.965 2.06,1.666c0.376,0.701 0.547,1.638 0.513,2.811l-3.088,0.411c0.045,-0.935 -0.209,-1.664 -0.762,-2.188c-0.553,-0.524 -1.428,-0.786 -2.625,-0.786c-1.412,-0 -2.466,0.233 -3.161,0.701c-0.694,0.467 -1.102,1.014 -1.224,1.64c-0.078,0.399 -0.022,0.758 0.166,1.077c0.187,0.33 0.527,0.604 1.02,0.82c0.286,0.114 1.14,0.376 2.565,0.786c2.063,0.581 3.488,1.057 4.277,1.427c0.788,0.371 1.358,0.909 1.711,1.615c0.353,0.707 0.427,1.584 0.223,2.632c-0.199,1.026 -0.686,1.991 -1.46,2.897c-0.774,0.906 -1.774,1.606 -2.998,2.102c-1.224,0.496 -2.548,0.743 -3.972,0.743c-2.359,0 -4.061,-0.49 -5.107,-1.469c-1.045,-0.98 -1.552,-2.433 -1.519,-4.358Zm64.206,-0l3.135,-0.479c-0.066,1.219 0.228,2.153 0.882,2.803c0.655,0.649 1.682,0.974 3.084,0.974c1.412,0 2.517,-0.288 3.312,-0.863c0.795,-0.575 1.268,-1.25 1.419,-2.025c0.135,-0.695 -0.061,-1.242 -0.587,-1.641c-0.368,-0.273 -1.349,-0.621 -2.942,-1.042c-2.145,-0.57 -3.613,-1.063 -4.404,-1.479c-0.79,-0.415 -1.339,-0.991 -1.646,-1.726c-0.308,-0.734 -0.375,-1.546 -0.202,-2.435c0.157,-0.809 0.488,-1.558 0.992,-2.247c0.504,-0.69 1.12,-1.262 1.846,-1.718c0.548,-0.353 1.258,-0.652 2.132,-0.897c0.873,-0.245 1.783,-0.367 2.728,-0.367c1.425,-0 2.635,0.205 3.632,0.615c0.997,0.41 1.684,0.965 2.06,1.666c0.377,0.701 0.548,1.638 0.513,2.811l-3.087,0.411c0.045,-0.935 -0.209,-1.664 -0.763,-2.188c-0.553,-0.524 -1.428,-0.786 -2.624,-0.786c-1.413,-0 -2.466,0.233 -3.161,0.701c-0.695,0.467 -1.103,1.014 -1.225,1.64c-0.077,0.399 -0.022,0.758 0.167,1.077c0.186,0.33 0.526,0.604 1.02,0.82c0.285,0.114 1.14,0.376 2.564,0.786c2.063,0.581 3.489,1.057 4.277,1.427c0.788,0.371 1.359,0.909 1.711,1.615c0.353,0.707 0.427,1.584 0.224,2.632c-0.2,1.026 -0.686,1.991 -1.461,2.897c-0.774,0.906 -1.773,1.606 -2.997,2.102c-1.225,0.496 -2.549,0.743 -3.973,0.743c-2.358,0 -4.06,-0.49 -5.106,-1.469c-1.046,-0.98 -1.552,-2.433 -1.52,-4.358Zm48.738,-0.428l3.102,0.394c-0.862,1.857 -2.071,3.298 -3.626,4.323c-1.555,1.026 -3.386,1.538 -5.494,1.538c-2.655,0 -4.601,-0.817 -5.838,-2.452c-1.238,-1.635 -1.569,-3.928 -0.996,-6.879c0.594,-3.053 1.84,-5.423 3.741,-7.109c1.9,-1.686 4.103,-2.529 6.609,-2.529c2.427,-0 4.249,0.826 5.466,2.478c1.217,1.652 1.534,3.976 0.952,6.972c-0.036,0.183 -0.095,0.456 -0.177,0.821l-13.535,-0c-0.274,1.993 -0.006,3.52 0.802,4.58c0.808,1.059 1.969,1.589 3.485,1.589c1.128,0 2.148,-0.296 3.061,-0.889c0.912,-0.592 1.728,-1.538 2.448,-2.837Zm5.727,0.428l3.135,-0.479c-0.066,1.219 0.228,2.153 0.883,2.803c0.654,0.649 1.682,0.974 3.083,0.974c1.413,0 2.517,-0.288 3.312,-0.863c0.796,-0.575 1.269,-1.25 1.419,-2.025c0.135,-0.695 -0.06,-1.242 -0.587,-1.641c-0.368,-0.273 -1.349,-0.621 -2.941,-1.042c-2.146,-0.57 -3.613,-1.063 -4.404,-1.479c-0.791,-0.415 -1.34,-0.991 -1.647,-1.726c-0.307,-0.734 -0.375,-1.546 -0.202,-2.435c0.157,-0.809 0.488,-1.558 0.992,-2.247c0.505,-0.69 1.12,-1.262 1.847,-1.718c0.547,-0.353 1.257,-0.652 2.131,-0.897c0.874,-0.245 1.783,-0.367 2.729,-0.367c1.424,-0 2.635,0.205 3.631,0.615c0.997,0.41 1.684,0.965 2.061,1.666c0.376,0.701 0.547,1.638 0.513,2.811l-3.088,0.411c0.045,-0.935 -0.209,-1.664 -0.762,-2.188c-0.554,-0.524 -1.428,-0.786 -2.625,-0.786c-1.412,-0 -2.466,0.233 -3.161,0.701c-0.694,0.467 -1.103,1.014 -1.224,1.64c-0.078,0.399 -0.022,0.758 0.166,1.077c0.187,0.33 0.527,0.604 1.02,0.82c0.285,0.114 1.14,0.376 2.564,0.786c2.064,0.581 3.489,1.057 4.278,1.427c0.788,0.371 1.358,0.909 1.711,1.615c0.352,0.707 0.427,1.584 0.223,2.632c-0.199,1.026 -0.686,1.991 -1.46,2.897c-0.774,0.906 -1.774,1.606 -2.998,2.102c-1.224,0.496 -2.548,0.743 -3.973,0.743c-2.358,0 -4.06,-0.49 -5.106,-1.469c-1.045,-0.98 -1.552,-2.433 -1.52,-4.358Zm46.833,5.417l3.528,-18.149l2.769,-0l-0.535,2.751c0.956,-1.287 1.774,-2.136 2.451,-2.546c0.678,-0.41 1.376,-0.615 2.094,-0.615c1.037,-0 2.026,0.33 2.969,0.991l-1.614,2.854c-0.666,-0.445 -1.375,-0.667 -2.127,-0.667c-0.672,0 -1.315,0.203 -1.929,0.607c-0.614,0.404 -1.105,0.966 -1.472,1.683c-0.555,1.094 -0.958,2.29 -1.211,3.589l-1.847,9.502l-3.076,0Zm34.505,0l-2.027,-18.149l3.179,-0l0.852,10.476l0.319,3.896c0.083,-0.193 0.639,-1.441 1.667,-3.742l4.955,-10.63l3.162,-0l0.67,10.527l0.232,3.469l1.723,-3.503l5.15,-10.493l2.991,-0l-9.202,18.149l-3.195,0l-0.776,-10.869l-0.099,-3.093l-6.389,13.962l-3.212,0Zm-182.315,0l3.528,-18.149l3.076,-0l-3.528,18.149l-3.076,0Zm-184.365,0l4.87,-25.054l3.315,0l-2,10.289l13.023,-0l2,-10.289l3.315,0l-4.87,25.054l-3.315,0l2.295,-11.809l-13.022,0l-2.296,11.809l-3.315,0Zm44.177,0l4.87,-25.054l3.076,0l-4.87,25.054l-3.076,0Zm147.947,0l3.528,-18.149l2.768,-0l-0.501,2.58c1.72,-1.993 3.839,-2.99 6.357,-2.99c1.094,-0 2.061,0.196 2.902,0.589c0.841,0.393 1.427,0.909 1.759,1.547c0.332,0.638 0.503,1.396 0.515,2.273c0.003,0.569 -0.134,1.566 -0.41,2.991l-2.17,11.159l-3.076,0l2.146,-11.04c0.244,-1.253 0.306,-2.19 0.188,-2.811c-0.119,-0.621 -0.447,-1.117 -0.984,-1.487c-0.538,-0.37 -1.217,-0.555 -2.037,-0.555c-1.31,-0 -2.522,0.415 -3.635,1.247c-1.113,0.832 -1.895,2.41 -2.347,4.734l-1.927,9.912l-3.076,0Zm-112.861,0l3.527,-18.149l2.769,-0l-0.502,2.58c1.721,-1.993 3.84,-2.99 6.358,-2.99c1.094,-0 2.061,0.196 2.902,0.589c0.841,0.393 1.427,0.909 1.759,1.547c0.331,0.638 0.503,1.396 0.515,2.273c0.003,0.569 -0.134,1.566 -0.411,2.991l-2.169,11.159l-3.076,0l2.146,-11.04c0.243,-1.253 0.306,-2.19 0.187,-2.811c-0.118,-0.621 -0.446,-1.117 -0.984,-1.487c-0.537,-0.37 -1.216,-0.555 -2.037,-0.555c-1.31,-0 -2.521,0.415 -3.634,1.247c-1.113,0.832 -1.896,2.41 -2.348,4.734l-1.926,9.912l-3.076,0Zm-7.759,0l3.528,-18.149l3.076,-0l-3.528,18.149l-3.076,0Zm61.007,-9.211c-0.423,2.176 -0.433,3.748 -0.029,4.717c0.661,1.583 1.817,2.375 3.469,2.375c1.345,0 2.62,-0.584 3.827,-1.752c1.207,-1.167 2.035,-2.908 2.485,-5.221c0.46,-2.369 0.33,-4.118 -0.39,-5.246c-0.721,-1.128 -1.748,-1.692 -3.081,-1.692c-1.344,-0 -2.62,0.584 -3.827,1.752c-1.207,1.167 -2.025,2.856 -2.454,5.067Zm-75.96,0.239c-0.454,2.336 -0.317,4.062 0.412,5.178c0.728,1.117 1.765,1.675 3.109,1.675c1.368,0 2.651,-0.578 3.85,-1.735c1.198,-1.156 2.034,-2.948 2.505,-5.374c0.45,-2.313 0.311,-4.045 -0.417,-5.196c-0.727,-1.15 -1.752,-1.726 -3.074,-1.726c-1.31,0 -2.588,0.613 -3.834,1.837c-1.247,1.225 -2.097,3.005 -2.551,5.341Zm291.094,-0.103c-0.452,2.325 -0.283,4.065 0.506,5.221c0.789,1.157 1.953,1.735 3.491,1.735c1.527,0 2.91,-0.581 4.15,-1.743c1.24,-1.162 2.091,-2.934 2.554,-5.315c0.436,-2.245 0.257,-3.945 -0.538,-5.101c-0.795,-1.157 -1.95,-1.735 -3.465,-1.735c-1.538,-0 -2.926,0.575 -4.164,1.726c-1.237,1.151 -2.082,2.888 -2.534,5.212Zm-31.092,-0.324c-0.462,2.381 -0.327,4.118 0.406,5.212c0.733,1.094 1.811,1.641 3.236,1.641c1.412,-0 2.703,-0.544 3.871,-1.632c1.169,-1.088 1.979,-2.794 2.431,-5.119c0.432,-2.221 0.265,-3.896 -0.502,-5.024c-0.766,-1.128 -1.844,-1.692 -3.234,-1.692c-1.367,-0 -2.637,0.555 -3.81,1.666c-1.173,1.111 -1.972,2.76 -2.398,4.948Zm-214.016,-0c-0.463,2.381 -0.327,4.118 0.406,5.212c0.733,1.094 1.811,1.641 3.235,1.641c1.413,-0 2.704,-0.544 3.872,-1.632c1.169,-1.088 1.979,-2.794 2.431,-5.119c0.432,-2.221 0.264,-3.896 -0.502,-5.024c-0.766,-1.128 -1.844,-1.692 -3.234,-1.692c-1.367,-0 -2.637,0.555 -3.81,1.666c-1.173,1.111 -1.972,2.76 -2.398,4.948Zm167.945,-1.419l10.134,0c0.16,-1.526 -0.005,-2.671 -0.495,-3.435c-0.749,-1.185 -1.904,-1.777 -3.465,-1.777c-1.413,-0 -2.693,0.473 -3.839,1.418c-1.147,0.946 -1.925,2.211 -2.335,3.794Zm-241.275,0l10.134,0c0.16,-1.526 -0.004,-2.671 -0.494,-3.435c-0.75,-1.185 -1.905,-1.777 -3.466,-1.777c-1.412,-0 -2.692,0.473 -3.839,1.418c-1.146,0.946 -1.925,2.211 -2.335,3.794Zm186.809,0l10.134,0c0.161,-1.526 -0.004,-2.671 -0.494,-3.435c-0.749,-1.185 -1.905,-1.777 -3.465,-1.777c-1.413,-0 -2.693,0.473 -3.839,1.418c-1.147,0.946 -1.925,2.211 -2.336,3.794Zm-140.33,-10.698l0.688,-3.538l3.076,0l-0.688,3.538l-3.076,0Zm112.861,0l0.688,-3.538l3.076,0l-0.687,3.538l-3.077,0Z" style="fill:#55555d;fill-rule:nonzero;"/><path d="M594.734,47.181c5.751,-0 10.501,-4.447 10.501,-10.998c-0,-6.502 -4.75,-11.002 -10.501,-11.002c-5.75,-0 -10.499,4.5 -10.499,11.002c-0,6.551 4.749,10.998 10.499,10.998Zm0,-1.994c-4.699,-0 -8.305,-3.705 -8.305,-9.004c0,-5.253 3.606,-9.008 8.305,-9.008c4.699,-0 8.306,3.755 8.306,9.008c0,5.299 -3.607,9.004 -8.306,9.004Zm-4.047,-3.454l2.294,-0l-0,-3.955l2.254,0l2.002,3.955l2.547,-0l-2.596,-4.653c1.247,-0.448 2.145,-1.748 2.145,-3.1c-0,-2.651 -2.096,-3.648 -4.398,-3.648l-4.248,0l-0,11.401Zm2.294,-5.699l-0,-3.758l1.553,0c1.703,0 2.304,0.752 2.304,1.854c0,1.253 -0.901,1.904 -2.404,1.904l-1.453,-0Z" style="fill:#55555d;fill-rule:nonzero;"/></g><defs><linearGradient id="_Linear2" x1="0" y1="0" x2="1" y2="0" gradientUnits="userSpaceOnUse" gradientTransform="matrix(-48.4632,276.169,-276.169,-48.4632,561.533,16.2258)"><stop offset="0" style="stop-color:#dfdbf0;stop-opacity:1"/><stop offset="0.5" style="stop-color:#3c3399;stop-opacity:1"/><stop offset="1" style="stop-color:#1f1f7a;stop-opacity:1"/></linearGradient><linearGradient id="_Linear3" x1="0" y1="0" x2="1" y2="0" gradientUnits="userSpaceOnUse" gradientTransform="matrix(-72.7883,403.787,-403.787,-72.7883,571.752,4.26326e-13)"><stop offset="0" style="stop-color:#d4edf7;stop-opacity:1"/><stop offset="0.5" style="stop-color:#209fdf;stop-opacity:1"/><stop offset="1" style="stop-color:#0f73bb;stop-opacity:1"/></linearGradient></defs></svg>